<svg width="110" height="98" viewBox="0 0 110 98" fill="none" xmlns="http://www.w3.org/2000/svg">
<g clip-path="url(#clip0_424_88)">
<path d="M90.4419 31.7313C89.2713 31.3295 88.0907 30.9573 86.9013 30.615C87.1011 29.7984 87.285 28.9916 87.4483 28.199C90.1287 15.1835 88.3764 4.69791 82.3913 1.24556C76.6528 -2.06409 67.268 1.38697 57.79 9.63831C56.8559 10.453 55.9425 11.2911 55.0507 12.1519C54.4537 11.5795 53.8462 11.0182 53.2284 10.4683C43.2949 1.64572 33.3382 -2.07269 27.3595 1.38955C21.6262 4.70951 19.9285 14.5667 22.3416 26.9018C22.5817 28.1234 22.8528 29.3388 23.1546 30.5467C21.7452 30.9473 20.3852 31.3737 19.0837 31.8276C7.43746 35.8894 0 42.2547 0 48.8572C0 55.6764 7.98445 62.5162 20.1145 66.6636C21.0979 66.9984 22.0895 67.3087 23.0884 67.5941C22.764 68.8951 22.476 70.2048 22.2247 71.5219C19.9242 83.6429 21.7207 93.2671 27.4386 96.566C33.3442 99.9728 43.2562 96.4715 52.9074 88.0319C53.69 87.3457 54.4554 86.6402 55.2028 85.9158C56.1686 86.8479 57.1601 87.7529 58.1762 88.6298C67.5254 96.6769 76.7585 99.9264 82.4708 96.6185C88.3708 93.2018 90.2885 82.8628 87.7989 70.284C87.6028 69.2985 87.3829 68.3179 87.1393 67.3431C87.8354 67.1368 88.5186 66.9245 89.1847 66.7035C101.795 62.5244 110 55.7675 110 48.8572C110 42.2306 102.322 35.8224 90.4419 31.7313ZM87.707 62.242C87.1054 62.441 86.4884 62.6331 85.8593 62.8201C84.4671 58.4114 82.5885 53.7237 80.2893 48.88C82.4832 44.1519 84.2896 39.524 85.6427 35.1441C86.7681 35.4699 87.8599 35.8133 88.9127 36.1757C99.092 39.6813 105.301 44.8637 105.301 48.8572C105.301 53.1108 98.5952 58.6327 87.707 62.242ZM83.1892 71.1969C84.2901 76.7589 84.4469 81.7878 83.7177 85.7194C83.0629 89.2521 81.7455 91.6071 80.1161 92.5506C76.6498 94.5579 69.2364 91.9489 61.2412 85.0665C60.296 84.2513 59.3737 83.4099 58.4753 82.5434C61.5751 79.1525 64.6727 75.2106 67.696 70.8324C73.0138 70.3605 78.0377 69.5885 82.5937 68.535C82.8131 69.4175 83.0117 70.3051 83.1892 71.1969ZM37.5014 92.2037C34.1146 93.3999 31.417 93.4343 29.7864 92.4939C26.3166 90.4922 24.8742 82.7644 26.8417 72.3987C27.0756 71.1738 27.3434 69.9557 27.6448 68.7456C32.1505 69.7428 37.1379 70.4598 42.4682 70.8922C45.5121 75.1762 48.6991 79.1139 51.911 82.5619C51.2284 83.2226 50.5297 83.8664 49.8154 84.4927C45.5473 88.2244 41.2706 90.8721 37.5014 92.2037ZM21.6348 62.2157C16.271 60.3817 11.8413 57.9983 8.80516 55.3974C6.07664 53.0605 4.69949 50.7399 4.69949 48.8572C4.69949 44.8504 10.6709 39.7398 20.6306 36.2664C21.8393 35.8451 23.1043 35.4476 24.417 35.0745C25.7937 39.5532 27.5993 44.2362 29.7782 48.9716C27.5709 53.777 25.7396 58.5347 24.3495 63.0664C23.4378 62.8051 22.5326 62.5215 21.6348 62.2157ZM26.9534 25.9987C24.8862 15.4306 26.2591 7.45867 29.7142 5.45784C33.394 3.32677 41.5314 6.3652 50.1084 13.9834C50.6677 14.4813 51.218 14.9893 51.7589 15.5071C48.5629 18.9401 45.4051 22.8485 42.3882 27.1072C37.2148 27.5869 32.2627 28.3572 27.7097 29.3892C27.4292 28.2657 27.177 27.1349 26.9534 25.9987ZM74.4025 37.7196C73.3271 35.8614 72.2118 34.0267 71.0574 32.2166C74.5671 32.6606 77.9298 33.2499 81.0876 33.9702C80.1397 37.01 78.9581 40.1877 77.5672 43.4457C76.5505 41.5161 75.4954 39.6071 74.4025 37.7196ZM55.0529 18.8671C57.2202 21.2161 59.391 23.8384 61.5261 26.6839C57.1948 26.4792 52.8564 26.4784 48.525 26.6813C50.6623 23.8621 52.8516 21.2431 55.0529 18.8671ZM35.579 37.7514C34.4998 39.6237 33.4644 41.5209 32.4736 43.4414C31.1055 40.195 29.9346 37.0027 28.9786 33.92C32.117 33.2176 35.4638 32.6434 38.9512 32.2075C37.7839 34.0287 36.6595 35.8775 35.579 37.7514ZM39.0513 65.8413C35.4484 65.439 32.0513 64.8944 28.9137 64.211C29.8848 61.0733 31.0814 57.813 32.4792 54.497C33.4739 56.419 34.5136 58.3173 35.5975 60.1904C36.7121 62.116 37.8662 64.0021 39.0513 65.8413ZM55.1826 79.1788C52.9551 76.7752 50.7336 74.1159 48.5641 71.2558C50.6705 71.3383 52.8176 71.3805 55 71.3805C57.2421 71.3805 59.4584 71.3302 61.64 71.233C59.498 74.1447 57.3354 76.8079 55.1826 79.1788ZM77.6114 54.3276C79.0818 57.6802 80.3211 60.9233 81.305 64.0072C78.1159 64.7354 74.6724 65.3217 71.0441 65.7571C72.2067 63.9134 73.3326 62.0467 74.421 60.1582C75.5276 58.2386 76.5913 56.2946 77.6114 54.3276ZM70.3506 57.8096C68.6843 60.7051 66.9244 63.5456 65.0736 66.3266C61.721 66.5641 58.361 66.6821 55 66.6803C51.5767 66.6803 48.247 66.5737 45.0407 66.3657C43.1416 63.5911 41.3481 60.7456 39.664 57.8354C37.9879 54.9406 36.4227 51.9831 34.971 48.9694C36.419 45.955 37.9799 42.9961 39.6503 40.0991L39.6498 40.0995C41.3196 37.2018 43.0988 34.3685 44.9836 31.6058C48.2548 31.3582 51.6093 31.2293 54.9996 31.2293C58.4053 31.2293 61.7646 31.3595 65.0349 31.6088C66.9007 34.3673 68.6685 37.1909 70.3351 40.0742C72.0111 42.9648 73.5926 45.9093 75.0772 48.9028C73.6078 51.9269 72.0313 54.8977 70.3506 57.8096ZM80.0443 5.31771C83.7276 7.44277 85.1602 16.0122 82.8459 27.2499C82.6981 27.9669 82.5322 28.6972 82.3518 29.4377C77.7876 28.3838 72.832 27.6002 67.6436 27.1133C64.6211 22.8077 61.4891 18.8933 58.3451 15.5046C59.1691 14.71 60.0127 13.9361 60.8751 13.1835C68.9962 6.11418 76.5862 3.3229 80.0443 5.31771ZM55 39.0314C60.4248 39.0314 64.8227 43.4307 64.8227 48.8572C64.8227 54.2838 60.4248 58.683 55 58.683C49.5752 58.683 45.1773 54.2838 45.1773 48.8572C45.1773 43.4307 49.5752 39.0314 55 39.0314Z" fill="#00D8FF"/>
</g>
<defs>
<clipPath id="clip0_424_88">
<rect width="110" height="98" fill="white"/>
</clipPath>
</defs>
</svg>
