<svg width="120" height="92" viewBox="0 0 120 92" fill="none" xmlns="http://www.w3.org/2000/svg">
<g clip-path="url(#clip0_424_90)">
<path d="M103.257 52.9546C99.082 52.9766 95.4534 54.0044 92.4155 55.5239C91.3003 53.267 90.1856 51.2564 89.9892 49.7815C89.7703 48.0613 89.5083 47.011 89.7703 44.9554C90.0328 42.8997 91.2131 39.9725 91.1911 39.7492C91.1695 39.5259 90.9286 38.4756 88.5244 38.4535C86.1202 38.431 84.0436 38.9227 83.8031 39.5705C83.5627 40.2183 83.1038 41.6932 82.7977 43.2122C82.3823 45.447 77.9892 53.4232 75.4758 57.6015C74.6667 55.9709 73.9673 54.5406 73.8141 53.4012C73.5956 51.6809 73.3331 50.6306 73.5956 48.575C73.8581 46.5194 75.0384 43.5926 75.0164 43.3688C74.9944 43.1455 74.7539 42.0952 72.3497 42.0732C69.945 42.0507 67.8684 42.5423 67.6284 43.1901C67.388 43.8384 67.1255 45.3574 66.623 46.8323C66.12 48.3071 60.2841 61.6241 58.7541 65.0645C58.1358 66.4571 57.4872 67.8353 56.8088 69.1983C56.8088 69.1983 56.7867 69.2654 56.7211 69.377C56.508 69.8044 56.2895 70.229 56.0658 70.6507V70.6727C55.7377 71.2765 55.388 71.8347 55.2131 71.8347C55.0819 71.8347 54.8414 70.2261 55.2567 68.0363C56.1309 63.4114 58.2075 56.2167 58.1859 55.9709C58.1859 55.8368 58.5792 54.5857 56.8308 53.9373C55.1255 53.2895 54.5138 54.3619 54.3605 54.3619C54.2077 54.3619 54.098 54.7419 54.098 54.7419C54.098 54.7419 56.0002 46.6535 50.4698 46.6535C47.0166 46.6535 42.2513 50.519 39.8906 54.0044C37.2071 55.4972 34.5258 56.9943 31.8469 58.4957C30.5578 59.2331 29.2242 59.9705 27.9783 60.6629C27.8906 60.5738 27.8034 60.4617 27.7158 60.3726C21.0272 53.0662 8.65594 47.9046 9.18047 38.0961C9.37734 34.521 10.5792 25.1365 32.94 13.7415C51.3441 4.46865 65.9892 7.03794 68.5247 12.7357C72.1528 20.8691 60.6778 35.9734 41.6611 38.1627C34.4044 38.9897 30.6009 36.1296 29.6395 35.0572C28.6341 33.9398 28.4808 33.8727 28.1091 34.0965C27.4973 34.4319 27.8906 35.4372 28.1091 36.0179C28.6777 37.5369 31.0163 40.2183 34.9725 41.537C38.4698 42.6985 46.9725 43.3468 57.2677 39.2801C68.7867 34.7218 77.7924 22.0531 75.1477 11.44C72.5025 0.670295 55.0163 -2.88225 38.4698 3.12794C28.6341 6.70348 17.9672 12.3337 10.2952 19.6625C1.18031 28.3762 -0.2625 35.9509 0.327656 39.1239C2.44828 50.3848 17.6395 57.7136 23.7159 63.1431C23.4098 63.3218 23.1253 63.4785 22.8853 63.6127C19.8469 65.1542 8.26219 71.3431 5.37703 77.8899C2.09859 85.3079 5.90203 90.6262 8.41547 91.3406C16.2188 93.5529 24.2405 89.5758 28.5464 83.0065C32.8523 76.4376 32.3278 67.9022 30.3389 63.9922C30.3169 63.9476 30.2953 63.9026 30.2513 63.858C31.0383 63.3889 31.8469 62.8973 32.6339 62.4282C34.0804 61.5541 35.5453 60.7121 37.0275 59.903C36.2841 61.9811 35.7375 64.4613 35.4755 68.0363C35.1473 72.2372 36.8302 77.6887 39.038 79.8334C40.0219 80.7726 41.1802 80.7946 41.9236 80.7946C44.5027 80.7946 45.6614 78.6048 46.9509 76.013C48.5245 72.8405 49.9453 69.1538 49.9453 69.1538C49.9453 69.1538 48.1748 79.119 52.9838 79.119C54.7322 79.119 56.5027 76.795 57.2897 75.611V75.633C57.2897 75.633 57.3333 75.566 57.4209 75.4098C57.5958 75.1194 57.705 74.9402 57.705 74.9402V74.8961C58.4044 73.6445 59.9784 70.8069 62.317 66.0924C65.3334 60.0151 68.2406 52.4184 68.2406 52.4184C68.2406 52.4184 68.5031 54.2728 69.3989 57.3562C69.9239 59.166 71.0161 61.1545 71.8908 63.076C71.1914 64.0818 70.7541 64.64 70.7541 64.64L70.7761 64.6625C70.2075 65.422 69.5958 66.2486 68.918 67.0536C66.5353 69.9578 63.6942 73.2875 63.3005 74.2478C62.8411 75.3872 62.9508 76.2143 63.8255 76.8846C64.4592 77.3763 65.5955 77.4429 66.7542 77.3763C68.8964 77.2196 70.4044 76.6834 71.1474 76.3484C72.3061 75.9239 73.6613 75.2756 74.9288 74.3149C77.2678 72.5496 78.6881 70.0249 78.5574 66.6961C78.4917 64.8638 77.9016 63.0314 77.1802 61.3108C77.3991 60.9983 77.5955 60.6854 77.8144 60.3726C81.5081 54.8535 84.3717 48.7983 84.3717 48.7983C84.3717 48.7983 84.6342 50.6527 85.53 53.7366C85.9674 55.3006 86.8636 56.9987 87.6502 58.6519C84.1748 61.5345 82.0327 64.8858 81.2677 67.0756C79.8909 71.1423 80.9616 72.9741 82.9945 73.3987C83.9123 73.5999 85.2239 73.1529 86.1858 72.7283C87.4097 72.3263 88.8525 71.6339 90.2297 70.6056C92.5688 68.8409 94.8197 66.3827 94.6884 63.054C94.6228 61.5345 94.2295 60.0371 93.683 58.5848C96.6338 57.3342 100.437 56.6413 105.289 57.222C115.694 58.4731 117.749 65.1091 117.355 67.9027C116.962 70.6952 114.776 72.2147 114.055 72.6838C113.333 73.1534 113.093 73.3096 113.159 73.6445C113.246 74.1361 113.595 74.1141 114.208 74.0245C115.06 73.8683 119.672 71.7676 119.869 66.6285C120.197 60.0596 114.076 52.8875 103.257 52.9546ZM22.9945 80.6159C19.5408 84.4588 14.7323 85.9112 12.6558 84.6826C10.4264 83.3639 11.3006 77.6887 15.5409 73.6225C18.12 71.1423 21.4425 68.8404 23.6503 67.4331C24.1528 67.1202 24.8963 66.6736 25.7925 66.1149C25.9453 66.0253 26.033 65.9807 26.033 65.9807L26.5575 65.6453C28.1091 71.4547 26.6231 76.5717 22.9945 80.6159ZM48.1313 63.1431C46.9289 66.1374 44.4155 73.8012 42.8855 73.3767C41.5739 73.0192 40.7648 67.2098 42.623 61.4674C43.5628 58.5848 45.5517 55.1439 46.7105 53.8037C48.5902 51.6584 50.6667 50.943 51.1692 51.8151C51.8034 52.9546 48.8742 61.2662 48.1313 63.1431ZM68.8744 73.287C68.3714 73.5554 67.8909 73.7341 67.672 73.5999C67.5192 73.5103 67.8909 73.1529 67.8909 73.1529C67.8909 73.1529 70.492 70.2932 71.5191 68.9971C72.1097 68.2376 72.8086 67.3439 73.552 66.3382V66.6285C73.552 70.0474 70.3167 72.3488 68.8739 73.287M84.8738 69.5558C84.502 69.2874 84.5677 68.3938 85.8136 65.6007C86.2945 64.5058 87.4308 62.674 89.3766 60.9087C89.595 61.6237 89.7483 62.3165 89.7263 62.9644C89.7042 67.2769 86.6883 68.8854 84.8738 69.5558Z" fill="#CD6799"/>
</g>
<defs>
<clipPath id="clip0_424_90">
<rect width="120" height="92" fill="white"/>
</clipPath>
</defs>
</svg>
