<svg width="117" height="118" viewBox="0 0 117 118" fill="none" xmlns="http://www.w3.org/2000/svg">
<g clip-path="url(#clip0_148_228)">
<path d="M58.5 117.541C90.8087 117.541 117 91.2284 117 58.7704C117 26.3124 90.8087 0 58.5 0C26.1913 0 0 26.3124 0 58.7704C0 91.2284 26.1913 117.541 58.5 117.541Z" fill="#1A171B"/>
<path d="M83.9593 21.7161C78.0243 21.9241 72.8443 25.2102 68.9884 29.7557C64.7188 34.7397 61.8783 40.6512 59.8317 46.6853C56.1709 43.671 53.3465 39.7687 47.4732 38.0671C42.9335 36.7577 38.1653 37.2985 33.7805 40.5805C31.7033 42.1393 30.2723 44.4956 29.5918 46.7105C27.83 52.4668 31.4442 57.5895 33.0858 59.4288L36.6749 63.293C37.4148 64.0506 39.1968 66.0272 38.3257 68.861C37.3842 71.9419 33.6868 73.9368 29.8944 72.7614C28.2006 72.2426 25.7674 70.9749 26.3122 69.1898C26.5375 68.4597 27.0576 67.9133 27.3364 67.282C27.5923 66.7398 27.7143 66.333 27.792 66.0942C28.4849 63.8214 27.5384 60.8646 25.1152 60.1139C22.8547 59.4178 20.5417 59.9692 19.645 62.8935C18.6281 66.2154 20.2103 72.2444 28.6864 74.8698C38.6173 77.9351 47.018 72.5029 48.2094 65.4179C48.9599 60.9803 46.9654 57.6836 43.3114 53.4434L40.3343 50.1357C38.5309 48.3258 37.9116 45.2408 39.7781 42.8698C41.3531 40.8698 43.5962 40.0162 47.2698 41.0199C52.6321 42.4827 55.0224 46.2206 59.0109 49.2354C57.3642 54.662 56.2879 60.1088 55.3135 64.9932L54.7199 68.6347C51.8689 83.6583 49.6925 91.9077 44.0367 96.6438C42.8974 97.4579 41.2685 98.6764 38.8133 98.7614C37.5263 98.8013 37.1104 97.912 37.0926 97.5244C37.062 96.6167 37.8234 96.2007 38.3293 95.7921C39.0853 95.378 40.2283 94.6911 40.1506 92.4904C40.0683 89.8898 37.924 87.6349 34.8244 87.7383C32.5027 87.8177 28.9639 90.0129 29.0969 94.0308C29.2353 98.181 33.0858 101.291 38.891 101.094C41.9943 100.987 48.9238 99.7182 55.7532 91.5625C63.7019 82.2134 65.9249 71.4956 67.5972 63.6511L69.4637 53.2946C70.5007 53.4195 71.6094 53.5026 72.8155 53.5316C82.7153 53.7414 87.6672 48.5898 87.7408 44.8427C87.7897 42.575 86.2596 40.3436 84.1175 40.3941C82.5841 40.4377 80.6577 41.463 80.1952 43.5934C79.7437 45.6834 83.3456 47.5696 80.5302 49.4016C78.5303 50.7019 74.9449 51.6183 69.8956 50.8736L70.8138 45.7757C72.6876 36.1084 74.9988 24.2171 83.7665 23.9278C84.4054 23.8952 86.7436 23.9567 86.798 25.51C86.814 26.0288 86.686 26.1611 86.0813 27.3489C85.4657 28.275 85.2336 29.0633 85.2623 29.9692C85.3469 32.4376 87.2152 34.0597 89.9172 33.9619C93.5351 33.8444 94.5757 30.3058 94.5163 28.4885C94.3701 24.2184 89.8907 21.521 83.9593 21.7161Z" fill="white"/>
</g>
<defs>
<clipPath id="clip0_148_228">
<rect width="117" height="118" fill="white"/>
</clipPath>
</defs>
</svg>
